<svg width="512" height="512" viewBox="0 0 512 512" fill="none" xmlns="http://www.w3.org/2000/svg">
  <rect width="512" height="512" rx="120" fill="#FFF8ED"/>
  <circle cx="256" cy="256" r="190" fill="#DBE8D4"/>
  <circle cx="256" cy="256" r="150" fill="#224434"/>
  <path d="M164 337V174H276C310 174 335 194 335 224C335 242 326 257 309 266C331 274 347 291 347 316C347 350 320 373 280 373H164V337ZM216 241H267C277 241 284 235 284 226C284 217 277 211 267 211H216V241ZM216 335H274C286 335 294 328 294 317C294 306 286 299 274 299H216V335Z" fill="#FFF8ED"/>
  <path d="M172 161H350V207H299V351H247V207H172V161Z" fill="#C49A4A" opacity="0.9"/>
</svg>
